<svg xmlns="http://www.w3.org/2000/svg" version="1.1" xmlns:xlink="http://www.w3.org/1999/xlink" xmlns:svgjs="http://svgjs.dev/svgjs" width="1000" height="750" viewBox="0 0 1000 750"><rect width="1000" height="750" fill="#003366"></rect><g transform="matrix(0.834,0,0,0.834,82.49454545454535,217.2293846899332)"><svg viewBox="0 0 396 150" data-background-color="#003366" preserveAspectRatio="xMidYMid meet" height="378" width="1000" xmlns="http://www.w3.org/2000/svg" xmlns:xlink="http://www.w3.org/1999/xlink"><g id="tight-bounds" transform="matrix(1,0,0,1,0.24000000000003752,0.06881280908770293)"><svg viewBox="0 0 395.5199999999999 149.8623709585933" height="149.8623709585933" width="395.5199999999999"><g><svg viewBox="0 0 395.52000000000004 149.86237095859332" height="149.8623709585933" width="395.5199999999999"><g><svg viewBox="0 0 395.52000000000004 149.86237095859332" height="149.86237095859332" width="395.52000000000004"><g><svg viewBox="0 0 395.52000000000004 149.86237095859332" height="149.86237095859332" width="395.52000000000004" id="textblock"><g><svg viewBox="0 0 395.52000000000004 149.86237095859332" height="149.86237095859332" width="395.52000000000004"><g transform="matrix(1,0,0,1,0,0)"><svg width="395.52000000000004" viewBox="1.149999976158142 -32.79999923706055 88.1500015258789 33.39999771118164" height="149.86237095859332" data-palette-color="#ffffff"><path d="M15.95 0.55Q11.35 0.55 8.03-1.35 4.7-3.25 2.93-6.83 1.15-10.4 1.15-15.35L1.15-15.35Q1.15-20.75 3.25-24.68 5.35-28.6 9.28-30.7 13.2-32.8 18.65-32.8L18.65-32.8Q20.55-32.8 22.75-32.52 24.95-32.25 26.55-31.95 28.15-31.65 28.6-31.55L28.6-31.55 28.95-30.75Q28.85-30.4 28.6-29.05 28.35-27.7 28.05-25.48 27.75-23.25 27.6-20.75L27.6-20.75 21.5-20.4Q21.5-20.6 21.55-21.35 21.6-22.1 21.6-23.1L21.6-23.1Q21.6-25.2 20.5-26.15 19.4-27.1 17-27.1L17-27.1Q13.6-27.1 12.03-24.73 10.45-22.35 10.45-17.1L10.45-17.1Q10.45-11.2 12.2-8.15 13.95-5.1 17.3-5.1L17.3-5.1Q19.65-5.1 20.9-6.6 22.15-8.1 22.6-11.55L22.6-11.55 28.7-11.95Q28.55-11.05 28.23-7.95 27.9-4.85 27.85-2.05L27.85-2.05 27.3-1.35Q27.3-1.3 25.55-0.8 23.8-0.3 21.28 0.13 18.75 0.55 15.95 0.55L15.95 0.55ZM46 0.6Q39.1 0.6 35.27-3.6 31.45-7.8 31.45-15.35L31.45-15.35Q31.45-20.75 33.4-24.68 35.35-28.6 39.05-30.7 42.75-32.8 47.8-32.8L47.8-32.8Q54.9-32.8 58.7-28.7 62.5-24.6 62.5-17L62.5-17Q62.5-11.6 60.5-7.63 58.5-3.65 54.77-1.53 51.05 0.6 46 0.6L46 0.6ZM47.15-4.55Q50.1-4.55 51.62-6.98 53.15-9.4 53.15-14.2L53.15-14.2Q53.15-20.8 51.52-23.95 49.9-27.1 46.55-27.1L46.55-27.1Q40.7-27.1 40.7-17.55L40.7-17.55Q40.7-10.95 42.32-7.75 43.95-4.55 47.15-4.55L47.15-4.55ZM74.65 0.6Q72.2 0.6 70.15 0.15 68.09-0.3 66.75-0.83 65.4-1.35 65.4-1.4L65.4-1.4 64.9-2.2Q64.95-2.55 65.15-3.75 65.34-4.95 65.57-6.93 65.8-8.9 65.84-10.6L65.84-10.6 70.9-10.95Q70.9-7.45 72.05-6.1 73.2-4.75 75.95-4.75L75.95-4.75Q77.95-4.75 79.15-5.58 80.34-6.4 80.34-7.85L80.34-7.85Q80.34-9.35 78.92-10.35 77.5-11.35 74.5-12.7L74.5-12.7Q74.09-12.9 73.72-13.08 73.34-13.25 73.05-13.4L73.05-13.4Q69.45-15.1 67.34-17.15 65.25-19.2 65.25-22.5L65.25-22.5Q65.25-25.5 67.05-27.85 68.84-30.2 72.07-31.5 75.3-32.8 79.45-32.8L79.45-32.8Q81.75-32.8 83.75-32.5 85.75-32.2 86.95-31.88 88.15-31.55 88.45-31.45L88.45-31.45 88.9-30.6Q88.84-30.3 88.62-29.15 88.4-28 88.09-25.98 87.8-23.95 87.65-21.95L87.65-21.95 83-21.6 82.5-22 82.55-23.35Q82.55-25.35 81.5-26.25 80.45-27.15 78.2-27.15L78.2-27.15Q76.4-27.15 75.25-26.33 74.09-25.5 74.09-24.15L74.09-24.15Q74.09-23.05 74.95-22.2 75.8-21.35 76.95-20.73 78.09-20.1 80.55-19L80.55-19Q83.25-17.8 85.05-16.7 86.84-15.6 88.07-13.85 89.3-12.1 89.3-9.65L89.3-9.65Q89.3-6.55 87.5-4.23 85.7-1.9 82.4-0.65 79.09 0.6 74.65 0.6L74.65 0.6Z" opacity="1" transform="matrix(1,0,0,1,0,0)" fill="#ffffff" class="undefined-text-0" data-fill-palette-color="primary" id="text-0"></path></svg></g></svg></g></svg></g></svg></g><g></g></svg></g><defs></defs></svg><rect width="395.5199999999999" height="149.8623709585933" fill="none" stroke="none" visibility="hidden"></rect></g></svg></g></svg>