<?xml version="1.0" standalone="no"?>
<!DOCTYPE svg PUBLIC "-//W3C//DTD SVG 20010904//EN"
 "http://www.w3.org/TR/2001/REC-SVG-20010904/DTD/svg10.dtd">
<svg version="1.0" xmlns="http://www.w3.org/2000/svg"
 width="500.000000pt" height="500.000000pt" viewBox="0 0 500.000000 500.000000"
 preserveAspectRatio="xMidYMid meet">

<g transform="translate(0.000000,500.000000) scale(0.100000,-0.100000)"
fill="#000000" stroke="none">
<path d="M1565 3292 c-64 -39 -60 -1 -63 -628 -3 -635 -5 -614 61 -654 30 -19
53 -20 410 -20 l377 0 0 -90 0 -90 -140 0 -140 0 0 -60 0 -60 430 0 430 0 0
60 0 60 -140 0 -140 0 0 90 0 90 378 0 c356 0 379 1 409 20 66 40 64 19 61
654 -3 558 -4 575 -23 596 -47 52 -8 50 -977 50 -858 0 -904 -1 -933 -18z
m1847 -59 c17 -15 18 -47 18 -584 l0 -568 -22 -15 c-20 -14 -122 -16 -903 -16
-689 0 -885 3 -905 13 l-25 13 -3 568 c-1 397 1 573 9 582 6 7 25 15 42 17 18
2 423 5 901 5 796 2 871 1 888 -15z m-822 -1348 l0 -75 -90 0 -90 0 0 75 0 75
90 0 90 0 0 -75z"/>
<path d="M1612 2653 l3 -538 885 0 885 0 3 538 2 537 -890 0 -890 0 2 -537z
m538 177 c19 -10 44 -76 34 -92 -3 -4 -15 -8 -27 -8 -16 0 -26 9 -34 30 -10
28 -15 30 -61 30 -72 0 -82 -14 -82 -110 0 -96 10 -110 82 -110 46 0 51 2 61
30 9 24 17 30 40 30 28 0 29 -1 23 -37 -11 -58 -35 -73 -121 -73 -98 0 -121
10 -134 57 -14 50 -14 186 0 217 6 13 21 29 33 34 27 14 162 15 186 2z m317
-14 c28 -24 28 -26 28 -135 0 -102 -2 -113 -23 -133 -19 -20 -35 -23 -112 -26
-83 -4 -91 -2 -113 20 -28 28 -41 110 -31 192 12 94 27 104 146 105 67 1 80
-2 105 -23z m325 -4 c19 -18 23 -36 26 -97 5 -97 -4 -141 -33 -171 -23 -22
-31 -24 -135 -24 l-110 0 0 161 0 161 115 -4 c103 -3 117 -5 137 -26z m288 3
c0 -25 -1 -25 -80 -25 l-80 0 0 -40 0 -40 75 0 c73 0 75 -1 75 -25 0 -24 -2
-25 -75 -25 l-75 0 0 -45 0 -45 80 0 c79 0 80 0 80 -25 l0 -25 -110 0 -110 0
0 160 0 160 110 0 110 0 0 -25z"/>
<path d="M2289 2774 c-9 -11 -14 -44 -14 -94 0 -97 10 -110 79 -110 28 0 57 4
65 9 18 12 27 146 12 184 -10 25 -14 27 -70 27 -42 0 -62 -5 -72 -16z"/>
<path d="M2600 2680 l0 -110 60 0 c84 0 100 17 100 110 0 93 -16 110 -100 110
l-60 0 0 -110z"/>
</g>
</svg>
